<svg id="visual" viewBox="0 0 900 600" width="900" height="600" xmlns="http://www.w3.org/2000/svg" xmlns:xlink="http://www.w3.org/1999/xlink" version="1.1"><rect x="0" y="0" width="900" height="600" fill="#fff"></rect><g transform="translate(906.4423865491387 425.52537271934307)"><path d="M243.3 -398.8C295 -391.6 302.5 -285.3 345.6 -202.3C388.7 -119.3 467.3 -59.7 545.6 45.2C623.8 150 701.6 300 651.2 370.3C600.8 440.6 422.1 431.2 292.2 489.7C162.3 548.2 81.2 674.6 -29.7 726C-140.5 777.4 -281 753.7 -297.2 629.6C-313.5 505.5 -205.5 280.9 -283 159.2C-360.6 37.5 -623.8 18.8 -671.7 -27.6C-719.5 -74 -552 -148 -451.6 -230.1C-351.2 -312.3 -317.8 -402.5 -253.8 -402.5C-189.7 -402.5 -94.8 -312.3 0.5 -313.1C95.8 -314 191.7 -406 243.3 -398.8" fill="#448aff"></path></g></svg>